<?xml version="1.0" standalone="no"?>
<!DOCTYPE svg PUBLIC "-//W3C//DTD SVG 20010904//EN"
 "http://www.w3.org/TR/2001/REC-SVG-20010904/DTD/svg10.dtd">
<svg version="1.0" xmlns="http://www.w3.org/2000/svg"
 width="636.000000pt" height="636.000000pt" viewBox="0 0 636.000000 636.000000"
 preserveAspectRatio="xMidYMid meet">
<metadata>
Created by potrace 1.14, written by Peter Selinger 2001-2017
</metadata>
<g transform="translate(0.000000,636.000000) scale(0.100000,-0.100000)"
fill="#000000" stroke="none">
<path d="M0 3180 l0 -3180 3180 0 3180 0 0 3180 0 3180 -3180 0 -3180 0 0
-3180z m3457 2625 c361 -58 600 -145 838 -303 189 -125 390 -330 518 -527 156
-242 244 -524 259 -833 l3 -63 -370 -5 c-203 -3 -466 -3 -582 1 l-213 7 0 24
c0 44 -47 171 -83 226 -45 67 -120 139 -207 198 -176 119 -430 167 -705 132
-279 -35 -477 -122 -538 -235 -19 -36 -22 -58 -22 -147 0 -96 2 -109 27 -152
40 -67 108 -121 239 -188 164 -84 457 -179 833 -269 366 -89 751 -221 925
-318 276 -154 489 -359 629 -604 120 -212 197 -581 171 -833 -24 -248 -109
-481 -251 -687 -231 -338 -628 -592 -1118 -713 -544 -135 -949 -123 -1425 41
-210 73 -433 200 -617 352 -263 217 -484 572 -566 911 -18 72 -42 270 -42 348
l0 22 582 -2 583 -3 8 -55 c9 -66 44 -145 89 -201 89 -111 296 -238 458 -281
121 -32 380 -32 558 0 286 52 504 170 562 305 20 45 22 64 18 147 -3 52 -11
109 -19 125 -59 130 -136 197 -344 299 -163 80 -217 99 -620 216 -611 177
-806 247 -1015 362 -146 81 -159 89 -255 165 -150 117 -308 335 -386 531 -131
329 -128 743 8 1073 70 169 155 301 273 420 132 134 239 213 382 282 245 119
451 182 722 222 213 31 220 31 394 33 111 2 178 -4 299 -23z"/>
</g>
</svg>
